<mxfile host="app.diagrams.net" modified="2024-02-24T23:48:34.977Z" agent="Mozilla/5.0 (X11; Linux x86_64; rv:120.0) Gecko/20100101 Firefox/120.0" etag="g5TtQ1p7IofUKY38tx7a" version="23.1.5" type="device">
  <diagram name="Seite-1" id="olzVaGis4nsVIcLEO0Mk">
    <mxGraphModel dx="1193" dy="637" grid="1" gridSize="10" guides="1" tooltips="1" connect="1" arrows="1" fold="1" page="0" pageScale="1" pageWidth="827" pageHeight="1169" math="0" shadow="0">
      <root>
        <mxCell id="0" />
        <mxCell id="1" parent="0" />
        <mxCell id="o4fX9G1XR78Njr48sm4R-1" value="Song" style="rounded=0;whiteSpace=wrap;html=1;fillColor=#dae8fc;strokeColor=#000000;" vertex="1" parent="1">
          <mxGeometry x="520" y="240" width="120" height="40" as="geometry" />
        </mxCell>
        <mxCell id="o4fX9G1XR78Njr48sm4R-2" value="&lt;div&gt;&lt;b&gt;Song ID&lt;/b&gt;&lt;/div&gt;&lt;div&gt;Künstler&lt;/div&gt;&lt;div&gt;Name&lt;/div&gt;&lt;div&gt;Erscheinungsjahr&lt;/div&gt;&lt;div&gt;Songschreiben&lt;br&gt;&lt;/div&gt;&lt;div&gt;&lt;br&gt;&lt;/div&gt;" style="text;html=1;align=left;verticalAlign=middle;resizable=0;points=[];autosize=1;strokeColor=none;fillColor=none;" vertex="1" parent="1">
          <mxGeometry x="650" y="240" width="120" height="100" as="geometry" />
        </mxCell>
        <mxCell id="o4fX9G1XR78Njr48sm4R-6" style="edgeStyle=orthogonalEdgeStyle;rounded=0;orthogonalLoop=1;jettySize=auto;html=1;exitX=1;exitY=0.5;exitDx=0;exitDy=0;entryX=0;entryY=0.5;entryDx=0;entryDy=0;endArrow=none;endFill=0;" edge="1" parent="1" source="o4fX9G1XR78Njr48sm4R-3" target="o4fX9G1XR78Njr48sm4R-5">
          <mxGeometry relative="1" as="geometry" />
        </mxCell>
        <mxCell id="o4fX9G1XR78Njr48sm4R-3" value="Playlist" style="rounded=0;whiteSpace=wrap;html=1;fillColor=#dae8fc;strokeColor=#000000;" vertex="1" parent="1">
          <mxGeometry x="160" y="240" width="120" height="40" as="geometry" />
        </mxCell>
        <mxCell id="o4fX9G1XR78Njr48sm4R-4" value="&lt;div&gt;&lt;b&gt;Playlist ID&lt;/b&gt;&lt;/div&gt;&lt;div&gt;Name&lt;/div&gt;&lt;div&gt;(Song IDs)&lt;br&gt;&lt;/div&gt;" style="text;html=1;align=right;verticalAlign=middle;resizable=0;points=[];autosize=1;strokeColor=none;fillColor=none;" vertex="1" parent="1">
          <mxGeometry x="70" y="240" width="80" height="60" as="geometry" />
        </mxCell>
        <mxCell id="o4fX9G1XR78Njr48sm4R-7" style="edgeStyle=orthogonalEdgeStyle;rounded=0;orthogonalLoop=1;jettySize=auto;html=1;exitX=1;exitY=0.5;exitDx=0;exitDy=0;entryX=0;entryY=0.5;entryDx=0;entryDy=0;" edge="1" parent="1" source="o4fX9G1XR78Njr48sm4R-5" target="o4fX9G1XR78Njr48sm4R-1">
          <mxGeometry relative="1" as="geometry" />
        </mxCell>
        <mxCell id="o4fX9G1XR78Njr48sm4R-5" value="" style="rhombus;whiteSpace=wrap;html=1;fillColor=#fff2cc;strokeColor=#000000;" vertex="1" parent="1">
          <mxGeometry x="390" y="250" width="20" height="20" as="geometry" />
        </mxCell>
        <mxCell id="o4fX9G1XR78Njr48sm4R-8" value="n" style="text;html=1;align=center;verticalAlign=middle;resizable=0;points=[];autosize=1;strokeColor=none;fillColor=none;" vertex="1" parent="1">
          <mxGeometry x="275" y="240" width="30" height="30" as="geometry" />
        </mxCell>
        <mxCell id="o4fX9G1XR78Njr48sm4R-9" value="m" style="text;html=1;align=center;verticalAlign=middle;resizable=0;points=[];autosize=1;strokeColor=none;fillColor=none;" vertex="1" parent="1">
          <mxGeometry x="490" y="240" width="30" height="30" as="geometry" />
        </mxCell>
        <mxCell id="o4fX9G1XR78Njr48sm4R-10" value="enthält" style="text;html=1;align=center;verticalAlign=middle;resizable=0;points=[];autosize=1;strokeColor=none;fillColor=none;fontSize=10;" vertex="1" parent="1">
          <mxGeometry x="401" y="252" width="50" height="30" as="geometry" />
        </mxCell>
      </root>
    </mxGraphModel>
  </diagram>
</mxfile>
